<svg xmlns="http://www.w3.org/2000/svg" xmlns:xlink="http://www.w3.org/1999/xlink" width="292.443" height="50.607" viewBox="0 0 292.443 50.607"><defs><clipPath id="a"><rect width="292.443" height="50.607" fill="none"/></clipPath></defs><g transform="translate(0 0)"><g transform="translate(0 0)" clip-path="url(#a)"><path d="M.042.2H7.82a.046.046,0,0,1,.046.042V42.079a.042.042,0,0,0,.042.042H29.476a.04.04,0,0,1,.042.042v6.964a.04.04,0,0,1-.042.042H.042A.04.04,0,0,1,0,49.127V.237A.042.042,0,0,1,.042.2" transform="translate(0 0.622)" fill="#161615"/><path d="M42.2,41.628H20.321l-.113.076-3.425,8.013-.113.076H8.55c-.046-.076-.063-.1-.113-.172L29.929.071A.12.12,0,0,1,30.038,0h2.514a.12.12,0,0,1,.109.071L54.15,49.621l-.109.172H45.847l-.113-.076L42.308,41.7a.125.125,0,0,0-.109-.071M31.256,14.717l-8.173,20.1.038.059H39.395l.038-.059-8.1-20.1a.042.042,0,0,0-.08,0" transform="translate(26.979 -0.001)" fill="#161615"/><path d="M19.908,39.974l5.5-4.181.059.013c2.821,4.063,6.746,7.753,12.815,7.753,5.046,0,8.458-2.6,8.458-6.83,0-3.858-2.9-5.339-7.2-7.342l-5.415-2.523C28.19,24.116,22.7,20.48,22.7,13.286,22.7,5.2,29.672,0,38.13,0A18.018,18.018,0,0,1,53.917,8.723l-.013.059-5.423,4.177-.063-.008c-2.519-3.761-6.07-5.9-10.288-5.9-3.929,0-7.421,1.927-7.421,5.936,0,3.711,2.821,5.046,6.83,6.977l5.491,2.523c7.421,3.413,11.724,7.2,11.724,13.949,0,8.681-7.048,14.176-16.4,14.176A20.825,20.825,0,0,1,19.9,40.033a.051.051,0,0,1,.013-.059" transform="translate(63.605 -0.001)" fill="#161615"/><path d="M30.086,29.673C27.487,13.277,39.745,0,55.415,0,69.586,0,81.159,10.981,81.159,25.3c0,16.455-15.128,28.355-31.969,24.611a24.83,24.83,0,0,1-19.1-20.241m42.988-4.445c0-10.314-7.568-18.033-17.588-18.033C45.323,7.195,37.9,14.839,37.9,25.228c0,10.536,7.426,18.18,17.588,18.18,10.02,0,17.588-7.644,17.588-18.18" transform="translate(95.089 -0.001)" fill="#161615"/><path d="M43.51,28.072C41.856,12.251,55.326-1.106,71.189.073A23.871,23.871,0,0,1,90.1,11.243l-.013.059-5.868,4.324-.063-.008C80.739,10.37,75.7,7.2,69.187,7.2c-10.091,0-17.66,7.64-17.66,18.1s7.568,18.1,17.66,18.1c6.515,0,11.552-3.173,14.965-8.421l.063-.008L90.083,39.3l.013.059C86.007,46.168,78.3,50.6,69.116,50.6c-13.386,0-24.246-9.533-25.606-22.533" transform="translate(138.69 0.001)" fill="#161615"/><path d="M56.484.195h7.778a.043.043,0,0,1,.046.042v48.89a.046.046,0,0,1-.046.042H56.484a.042.042,0,0,1-.042-.042V.237a.04.04,0,0,1,.042-.042M96.861,49.169H88.907a3.669,3.669,0,0,1-2.77-1.259L64.073,23.152v-.059L83.991,1.412A3.658,3.658,0,0,1,86.724.195h7.908a.043.043,0,0,1,.034.071L73.942,23.093v.059L96.895,49.1a.043.043,0,0,1-.034.071" transform="translate(180.483 0.622)" fill="#161615"/><path d="M67.837.2h7.778a.046.046,0,0,1,.046.042v48.89a.043.043,0,0,1-.046.042H67.837a.04.04,0,0,1-.042-.042V.237A.042.042,0,0,1,67.837.2" transform="translate(216.786 0.622)" fill="#161615"/></g></g></svg>